<svg width="338" height="338" viewBox="0 0 338 338" fill="none" xmlns="http://www.w3.org/2000/svg">
<path d="M286.414 325.616C299.404 325.616 309.935 315.085 309.935 302.095C309.935 289.105 299.404 278.574 286.414 278.574C273.424 278.574 262.893 289.105 262.893 302.095C262.893 315.085 273.424 325.616 286.414 325.616Z" stroke="#424C55" stroke-width="23.5212" stroke-linecap="round" stroke-linejoin="round"/>
<path d="M129.606 325.616C142.596 325.616 153.127 315.085 153.127 302.095C153.127 289.105 142.596 278.574 129.606 278.574C116.616 278.574 106.085 289.105 106.085 302.095C106.085 315.085 116.616 325.616 129.606 325.616Z" stroke="#424C55" stroke-width="23.5212" stroke-linecap="round" stroke-linejoin="round"/>
<path d="M59.0424 43.3616H325.616L294.255 215.851H90.4041L59.0424 43.3616ZM59.0424 43.3616C56.4289 32.9077 43.3616 12 12 12" stroke="#424C55" stroke-width="23.5212" stroke-linecap="round" stroke-linejoin="round"/>
<path d="M294.255 215.851H90.404H62.661C34.6816 215.851 19.8403 228.1 19.8403 247.212C19.8403 266.324 34.6816 278.574 62.661 278.574H286.414" stroke="#424C55" stroke-width="23.5212" stroke-linecap="round" stroke-linejoin="round"/>
</svg>
