<svg width="36" height="36" viewBox="0 0 36 36" fill="none" xmlns="http://www.w3.org/2000/svg">
<rect y="1.90735e-05" width="36" height="36" rx="4" fill="#424C55"/>
<path d="M18.06 4.00002C10.2918 4.00002 4 9.96855 4 17.3301C4 23.2209 8.02819 28.2163 13.6135 29.977C14.3165 30.1025 14.5743 29.6904 14.5743 29.336C14.5743 29.0194 14.5626 28.1807 14.5567 27.0699C10.6457 27.8742 9.82084 25.2815 9.82084 25.2815C9.18111 23.7429 8.25666 23.3319 8.25666 23.3319C6.98306 22.5055 8.35508 22.5221 8.35508 22.5221C9.76694 22.6154 10.5086 23.8951 10.5086 23.8951C11.7623 25.9335 13.7998 25.3448 14.6036 25.0037C14.7301 24.1417 15.0922 23.5541 15.494 23.2209C12.3716 22.8876 9.08972 21.7412 9.08972 16.6336C9.08972 15.1784 9.63454 13.9898 10.5367 13.0567C10.3786 12.7201 9.90403 11.3649 10.6598 9.52866C10.6598 9.52866 11.8373 9.17097 14.5263 10.895C15.6511 10.5984 16.8462 10.4518 18.0413 10.4451C19.2364 10.4518 20.4315 10.5984 21.5563 10.895C24.2277 9.17097 25.4052 9.52866 25.4052 9.52866C26.1609 11.3649 25.6864 12.7201 25.5458 13.0567C26.4421 13.9898 26.9869 15.1784 26.9869 16.6336C26.9869 21.7545 23.7004 22.882 20.5721 23.2097C21.0642 23.6096 21.5211 24.4272 21.5211 25.6758C21.5211 27.4598 21.5035 28.8928 21.5035 29.326C21.5035 29.6759 21.7496 30.0925 22.4701 29.9592C28.0953 28.2107 32.12 23.212 32.12 17.3301C32.12 9.96855 25.8246 4.00002 18.06 4.00002Z" fill="white"/>
</svg>
