<svg width="338" height="338" viewBox="0 0 338 338" fill="none" xmlns="http://www.w3.org/2000/svg">
<path d="M168.808 325.616C255.41 325.616 325.616 255.41 325.616 168.808C325.616 82.2053 255.41 12 168.808 12C82.2053 12 12 82.2053 12 168.808C12 255.41 82.2053 325.616 168.808 325.616Z" stroke="#424C55" stroke-width="23.5212" stroke-linecap="round" stroke-linejoin="round"/>
<path d="M19.8403 176.648L106.085 208.01L90.404 262.893L106.085 309.935" stroke="#424C55" stroke-width="23.5212" stroke-linecap="round" stroke-linejoin="round"/>
<path d="M247.212 302.095L239.372 262.893L200.17 247.212V192.329L247.212 176.648L317.776 184.489" stroke="#424C55" stroke-width="23.5212" stroke-linecap="round" stroke-linejoin="round"/>
<path d="M278.574 66.8828L270.733 90.404L215.851 98.2444V145.287L255.053 129.606H286.414L317.776 145.287" stroke="#424C55" stroke-width="23.5212" stroke-linecap="round" stroke-linejoin="round"/>
<path d="M19.8403 145.287L59.0424 113.925L98.2444 106.085L129.606 59.0425L113.925 27.6809" stroke="#424C55" stroke-width="23.5212" stroke-linecap="round" stroke-linejoin="round"/>
</svg>
