<svg width="36" height="36" viewBox="0 0 36 36" fill="none" xmlns="http://www.w3.org/2000/svg">
<rect width="36" height="36" rx="4" fill="#424C55"/>
<path d="M18 4C14.1967 4 13.7218 4.01614 12.2285 4.07749C10.7375 4.14207 9.7225 4.3584 8.83 4.67806C7.9095 5.0074 7.12783 5.44975 6.34967 6.16763C5.5715 6.88551 5.09083 7.60555 4.735 8.45581C4.3885 9.27917 4.15283 10.2155 4.084 11.591C4.014 12.9687 4 13.4067 4 16.9154C4 20.4241 4.0175 20.8621 4.084 22.2398C4.154 23.6142 4.3885 24.5516 4.735 25.375C5.092 26.2231 5.5715 26.9453 6.34967 27.6631C7.12783 28.38 7.90833 28.8245 8.83 29.1527C9.72367 29.4713 10.7387 29.6898 12.2285 29.7533C13.7218 29.8179 14.1967 29.8308 18 29.8308C21.8033 29.8308 22.2782 29.8146 23.7715 29.7533C25.2613 29.6887 26.2775 29.4713 27.17 29.1527C28.0893 28.8234 28.8722 28.38 29.6503 27.6631C30.4273 26.9453 30.9092 26.2263 31.265 25.375C31.6103 24.5516 31.8472 23.6142 31.916 22.2398C31.986 20.8621 32 20.4241 32 16.9154C32 13.4067 31.9825 12.9687 31.916 11.591C31.846 10.2166 31.6103 9.27809 31.265 8.45581C30.908 7.60662 30.4273 6.88551 29.6503 6.16763C28.8722 5.44975 28.0928 5.00632 27.17 4.67806C26.2775 4.3584 25.2613 4.14099 23.7715 4.07749C22.2782 4.01292 21.8033 4 18 4V4ZM18 6.32477C21.7368 6.32477 22.1825 6.34199 23.6583 6.40119C25.0233 6.46038 25.7642 6.66918 26.2565 6.84784C26.9122 7.0814 27.3765 7.36123 27.8688 7.81219C28.3577 8.26423 28.661 8.69367 28.9142 9.29854C29.1055 9.75273 29.3342 10.4362 29.396 11.6954C29.4625 13.058 29.4777 13.467 29.4777 16.9154C29.4777 20.3638 29.4602 20.7739 29.3913 22.1354C29.3202 23.3946 29.0927 24.0781 28.9002 24.5322C28.6388 25.1371 28.3413 25.5655 27.8513 26.0197C27.3625 26.4706 26.89 26.7505 26.2413 26.984C25.7513 27.1605 24.9988 27.3715 23.6338 27.4285C22.1475 27.4899 21.71 27.5039 17.965 27.5039C14.2188 27.5039 13.7813 27.4877 12.2962 27.4242C10.93 27.3586 10.1775 27.1487 9.6875 26.9711C9.02367 26.73 8.5675 26.4556 8.07867 26.0035C7.5875 25.5526 7.27367 25.1167 7.02867 24.5182C6.83617 24.0662 6.60983 23.372 6.53867 22.1128C6.48617 20.7566 6.4675 20.338 6.4675 16.8992C6.4675 13.4594 6.48617 13.0397 6.53867 11.6674C6.60983 10.4082 6.83617 9.71506 7.02867 9.26302C7.27367 8.64954 7.5875 8.22979 8.07867 7.77668C8.5675 7.32571 9.02367 7.03512 9.6875 6.81017C10.1775 6.63151 10.9137 6.42164 12.2787 6.35706C13.7662 6.30863 14.2037 6.29248 17.9475 6.29248L18 6.32477ZM18 10.2833C14.0275 10.2833 10.811 13.2539 10.811 16.9154C10.811 20.5801 14.031 23.5474 18 23.5474C21.9725 23.5474 25.189 20.5769 25.189 16.9154C25.189 13.2506 21.969 10.2833 18 10.2833ZM18 21.2205C15.4217 21.2205 13.3333 19.294 13.3333 16.9154C13.3333 14.5368 15.4217 12.6103 18 12.6103C20.5783 12.6103 22.6667 14.5368 22.6667 16.9154C22.6667 19.294 20.5783 21.2205 18 21.2205ZM27.1537 10.0218C27.1537 10.8774 26.4 11.5716 25.4737 11.5716C24.5462 11.5716 23.7937 10.8764 23.7937 10.0218C23.7937 9.16723 24.5473 8.47303 25.4737 8.47303C26.3988 8.47195 27.1537 9.16723 27.1537 10.0218Z" fill="white"/>
</svg>
