<svg id="visual" viewBox="0 0 1920 400" width="1920" height="400" xmlns="http://www.w3.org/2000/svg" xmlns:xlink="http://www.w3.org/1999/xlink" version="1.1"><rect x="0" y="0" width="1920" height="400" fill="#ffffff"></rect><path d="M0 251L45.7 251.5C91.3 252 182.7 253 274.2 255.2C365.7 257.3 457.3 260.7 548.8 267.5C640.3 274.3 731.7 284.7 823 280.8C914.3 277 1005.7 259 1097 256C1188.3 253 1279.7 265 1371.2 273.8C1462.7 282.7 1554.3 288.3 1645.8 291.2C1737.3 294 1828.7 294 1874.3 294L1920 294L1920 401L1874.3 401C1828.7 401 1737.3 401 1645.8 401C1554.3 401 1462.7 401 1371.2 401C1279.7 401 1188.3 401 1097 401C1005.7 401 914.3 401 823 401C731.7 401 640.3 401 548.8 401C457.3 401 365.7 401 274.2 401C182.7 401 91.3 401 45.7 401L0 401Z" fill="#f2f0ff"></path><path d="M0 311L45.7 311.8C91.3 312.7 182.7 314.3 274.2 312.8C365.7 311.3 457.3 306.7 548.8 306.5C640.3 306.3 731.7 310.7 823 313.7C914.3 316.7 1005.7 318.3 1097 314.2C1188.3 310 1279.7 300 1371.2 295.2C1462.7 290.3 1554.3 290.7 1645.8 290.7C1737.3 290.7 1828.7 290.3 1874.3 290.2L1920 290L1920 401L1874.3 401C1828.7 401 1737.3 401 1645.8 401C1554.3 401 1462.7 401 1371.2 401C1279.7 401 1188.3 401 1097 401C1005.7 401 914.3 401 823 401C731.7 401 640.3 401 548.8 401C457.3 401 365.7 401 274.2 401C182.7 401 91.3 401 45.7 401L0 401Z" fill="#c2c4d2"></path><path d="M0 297L45.7 296C91.3 295 182.7 293 274.2 299C365.7 305 457.3 319 548.8 321C640.3 323 731.7 313 823 306.7C914.3 300.3 1005.7 297.7 1097 302.5C1188.3 307.3 1279.7 319.7 1371.2 324.5C1462.7 329.3 1554.3 326.7 1645.8 324.3C1737.3 322 1828.7 320 1874.3 319L1920 318L1920 401L1874.3 401C1828.7 401 1737.3 401 1645.8 401C1554.3 401 1462.7 401 1371.2 401C1279.7 401 1188.3 401 1097 401C1005.7 401 914.3 401 823 401C731.7 401 640.3 401 548.8 401C457.3 401 365.7 401 274.2 401C182.7 401 91.3 401 45.7 401L0 401Z" fill="#959aa7"></path><path d="M0 355L45.7 352.8C91.3 350.7 182.7 346.3 274.2 340.5C365.7 334.7 457.3 327.3 548.8 327.8C640.3 328.3 731.7 336.7 823 340.7C914.3 344.7 1005.7 344.3 1097 346.8C1188.3 349.3 1279.7 354.7 1371.2 354C1462.7 353.3 1554.3 346.7 1645.8 342.7C1737.3 338.7 1828.7 337.3 1874.3 336.7L1920 336L1920 401L1874.3 401C1828.7 401 1737.3 401 1645.8 401C1554.3 401 1462.7 401 1371.2 401C1279.7 401 1188.3 401 1097 401C1005.7 401 914.3 401 823 401C731.7 401 640.3 401 548.8 401C457.3 401 365.7 401 274.2 401C182.7 401 91.3 401 45.7 401L0 401Z" fill="#6a727d"></path><path d="M0 351L45.7 352.7C91.3 354.3 182.7 357.7 274.2 359.3C365.7 361 457.3 361 548.8 361.7C640.3 362.3 731.7 363.7 823 365.5C914.3 367.3 1005.7 369.7 1097 368.2C1188.3 366.7 1279.7 361.3 1371.2 361.2C1462.7 361 1554.3 366 1645.8 370.3C1737.3 374.7 1828.7 378.3 1874.3 380.2L1920 382L1920 401L1874.3 401C1828.7 401 1737.3 401 1645.8 401C1554.3 401 1462.7 401 1371.2 401C1279.7 401 1188.3 401 1097 401C1005.7 401 914.3 401 823 401C731.7 401 640.3 401 548.8 401C457.3 401 365.7 401 274.2 401C182.7 401 91.3 401 45.7 401L0 401Z" fill="#424c55"></path></svg>