<svg width="36" height="36" viewBox="0 0 36 36" fill="none" xmlns="http://www.w3.org/2000/svg">
<rect width="36" height="36" rx="4" fill="#424C55"/>
<path d="M27.9571 27.1065H23.793V21.087C23.793 19.6515 23.7613 17.8043 21.623 17.8043C19.4519 17.8043 19.1204 19.3662 19.1204 20.981V27.1065H14.9563V14.7281H18.9563V16.4153H19.0102C19.5691 15.4425 20.9282 14.4157 22.9587 14.4157C27.1779 14.4157 27.9582 16.9774 27.9582 20.312V27.1065H27.9571ZM10.2532 13.0343C8.9128 13.0343 7.83604 12.0334 7.83604 10.8023C7.83604 9.5722 8.91397 8.57237 10.2532 8.57237C11.5889 8.57237 12.6715 9.5722 12.6715 10.8023C12.6715 12.0334 11.5877 13.0343 10.2532 13.0343ZM12.3411 27.1065H8.16527V14.7281H12.3411V27.1065ZM30.0403 5.00002H6.07502C4.92796 5.00002 4 5.83663 4 6.86888V29.0726C4 30.106 4.92796 30.9415 6.07502 30.9415H30.0368C31.1827 30.9415 32.12 30.106 32.12 29.0726V6.86888C32.12 5.83663 31.1827 5.00002 30.0368 5.00002L30.0403 5.00002Z" fill="white"/>
</svg>
