<svg width="342" height="401" viewBox="0 0 342 401" fill="none" xmlns="http://www.w3.org/2000/svg">
<path d="M311.472 199.92V83.6928C311.472 80.7342 310.297 77.8969 308.206 75.8047L249.667 17.2674C247.575 15.1752 244.738 14 241.78 14H25.1552C18.9944 14 14 18.9944 14 25.1552V374.685C14 380.847 18.9944 385.84 25.1552 385.84H144.144" stroke="#424C55" stroke-width="27.888" stroke-linecap="round" stroke-linejoin="round"/>
<path d="M88.3682 162.736H237.104M88.3682 88.3682H162.736M88.3682 237.104H144.144" stroke="#424C55" stroke-width="27.888" stroke-linecap="round" stroke-linejoin="round"/>
<path d="M273.436 291.756L292.028 273.164C300.17 265.022 313.37 265.022 321.511 273.164C329.653 281.305 329.653 294.505 321.511 302.647L302.919 321.239M273.436 291.756L217.826 347.366C215.039 350.153 213.209 353.755 212.603 357.648L208.091 386.584L237.026 382.074C240.921 381.466 244.52 379.637 247.307 376.85L302.919 321.239M273.436 291.756L302.919 321.239" stroke="#424C55" stroke-width="27.888" stroke-linecap="round" stroke-linejoin="round"/>
<path d="M237.104 14V77.2129C237.104 83.3737 242.098 88.3681 248.26 88.3681H311.473" stroke="#424C55" stroke-width="27.888" stroke-linecap="round" stroke-linejoin="round"/>
</svg>
