<svg width="338" height="338" viewBox="0 0 338 338" fill="none" xmlns="http://www.w3.org/2000/svg">
<path d="M12 168.808C12 255.41 82.2053 325.616 168.808 325.616C255.41 325.616 325.616 255.41 325.616 168.808C325.616 82.2053 255.41 12 168.808 12C82.2053 12 12 82.2053 12 168.808Z" stroke="#424C55" stroke-width="23.5212" stroke-linecap="round" stroke-linejoin="round"/>
<path d="M184.489 12.7734C184.489 12.7734 231.531 74.7224 231.531 168.807C231.531 262.891 184.489 324.842 184.489 324.842" stroke="#424C55" stroke-width="23.5212" stroke-linecap="round" stroke-linejoin="round"/>
<path d="M153.127 324.842C153.127 324.842 106.085 262.891 106.085 168.807C106.085 74.7224 153.127 12.7734 153.127 12.7734" stroke="#424C55" stroke-width="23.5212" stroke-linecap="round" stroke-linejoin="round"/>
<path d="M21.877 223.691H315.747" stroke="#424C55" stroke-width="23.5212" stroke-linecap="round" stroke-linejoin="round"/>
<path d="M21.877 113.925H315.747" stroke="#424C55" stroke-width="23.5212" stroke-linecap="round" stroke-linejoin="round"/>
</svg>
